<svg width="1208" height="57" viewBox="0 0 1208 57" fill="none" xmlns="http://www.w3.org/2000/svg">
<rect x="552.5" y="5.5" width="47" height="47" stroke="#4B4136"/>
<g clip-path="url(#clip0_1_248)">
<path d="M585.962 22.8074C585.224 23.1316 584.437 23.3524 583.607 23.4532C584.452 22.9441 585.102 22.1416 585.41 21.1841C584.617 21.6466 583.739 21.9832 582.804 22.1707C582.057 21.3716 580.993 20.8716 579.812 20.8716C577.547 20.8716 575.712 22.7074 575.712 24.9691C575.712 25.2941 575.749 25.6066 575.817 25.9057C572.409 25.7449 569.388 24.1082 567.367 21.6341C567.011 22.2357 566.812 22.9349 566.812 23.6966C566.812 25.1216 567.537 26.3741 568.635 27.1099C567.962 27.0882 567.33 26.9032 566.778 26.5966V26.6474C566.778 28.6349 568.189 30.2924 570.067 30.6699C569.722 30.7624 569.359 30.8124 568.987 30.8124C568.725 30.8124 568.474 30.7874 568.223 30.7408C568.749 32.3683 570.261 33.5549 572.06 33.5883C570.66 34.6874 568.886 35.3424 566.975 35.3424C566.65 35.3424 566.326 35.3233 566 35.2866C567.824 36.4483 569.973 37.1274 572.297 37.1274C579.842 37.1274 583.963 30.8808 583.963 25.4724C583.963 25.2982 583.963 25.1224 583.951 24.9474C584.752 24.3732 585.451 23.6474 586.001 22.8241L585.962 22.8074Z" fill="white"/>
</g>
<rect x="664.5" y="5.5" width="47" height="47" stroke="#4B4136"/>
<g clip-path="url(#clip1_1_248)">
<path d="M695.039 36.0433H692.077V31.4025C692.077 30.2958 692.055 28.8717 690.534 28.8717C688.99 28.8717 688.754 30.0758 688.754 31.3208V36.0433H685.792V26.5H688.637V27.8008H688.676C689.073 27.0508 690.04 26.2592 691.484 26.2592C694.485 26.2592 695.04 28.2342 695.04 30.805V36.0433H695.039ZM682.447 25.1942C681.494 25.1942 680.728 24.4225 680.728 23.4733C680.728 22.525 681.495 21.7542 682.447 21.7542C683.397 21.7542 684.168 22.525 684.168 23.4733C684.168 24.4225 683.397 25.1942 682.447 25.1942ZM683.932 36.0433H680.963V26.5H683.932V36.0433ZM696.521 19H679.476C678.66 19 678 19.645 678 20.4408V37.5592C678 38.3558 678.66 39 679.476 39H696.518C697.333 39 698 38.3558 698 37.5592V20.4408C698 19.645 697.333 19 696.518 19H696.521Z" fill="white"/>
</g>
<rect x="496.5" y="5.5" width="47" height="47" stroke="#4B4136"/>
<path d="M521.491 38.9953V29.8744H524.439L524.88 26.3199H521.491V24.0504C521.491 23.0213 521.766 22.3199 523.187 22.3199L525 22.319V19.1399C524.686 19.0968 523.61 19 522.359 19C519.745 19 517.956 20.6564 517.956 23.6985V26.32H515V29.8745H517.956V38.9953L521.491 38.9953Z" fill="white"/>
<rect x="608.5" y="5.5" width="47" height="47" stroke="#4B4136"/>
<g clip-path="url(#clip2_1_248)">
<path d="M632 19C629.283 19 628.944 19.0125 627.878 19.06C626.812 19.11 626.087 19.2775 625.45 19.525C624.792 19.78 624.234 20.1225 623.678 20.6783C623.122 21.2342 622.779 21.7917 622.525 22.45C622.278 23.0875 622.109 23.8125 622.06 24.8775C622.01 25.9442 622 26.2833 622 29C622 31.7167 622.012 32.0558 622.06 33.1225C622.11 34.1867 622.278 34.9125 622.525 35.55C622.78 36.2067 623.122 36.7658 623.678 37.3217C624.234 37.8767 624.792 38.2208 625.45 38.475C626.088 38.7217 626.813 38.8908 627.878 38.94C628.944 38.99 629.283 39 632 39C634.717 39 635.056 38.9875 636.123 38.94C637.187 38.89 637.913 38.7217 638.55 38.475C639.207 38.22 639.766 37.8767 640.322 37.3217C640.877 36.7658 641.221 36.2092 641.475 35.55C641.722 34.9125 641.891 34.1867 641.94 33.1225C641.99 32.0558 642 31.7167 642 29C642 26.2833 641.987 25.9442 641.94 24.8775C641.89 23.8133 641.722 23.0867 641.475 22.45C641.22 21.7925 640.877 21.2342 640.322 20.6783C639.766 20.1225 639.209 19.7792 638.55 19.525C637.913 19.2775 637.187 19.1092 636.123 19.06C635.056 19.01 634.717 19 632 19ZM632 20.8C634.669 20.8 634.988 20.8133 636.042 20.8592C637.017 20.905 637.546 21.0667 637.897 21.205C638.366 21.3858 638.698 21.6025 639.049 21.9517C639.398 22.3017 639.615 22.6342 639.796 23.1025C639.932 23.4542 640.096 23.9833 640.14 24.9583C640.188 26.0133 640.198 26.33 640.198 29C640.198 31.67 640.186 31.9875 640.137 33.0417C640.086 34.0167 639.923 34.5458 639.786 34.8975C639.599 35.3658 639.387 35.6975 639.037 36.0492C638.688 36.3983 638.35 36.615 637.887 36.7958C637.537 36.9325 636.999 37.0958 636.024 37.14C634.962 37.1875 634.65 37.1983 631.975 37.1983C629.299 37.1983 628.987 37.1858 627.926 37.1367C626.95 37.0858 626.412 36.9233 626.062 36.7858C625.588 36.5992 625.263 36.3867 624.913 36.0367C624.562 35.6875 624.338 35.35 624.163 34.8867C624.026 34.5367 623.864 33.9992 623.813 33.0242C623.776 31.9742 623.762 31.65 623.762 28.9875C623.762 26.3242 623.776 25.9992 623.813 24.9367C623.864 23.9617 624.026 23.425 624.163 23.075C624.338 22.6 624.562 22.275 624.913 21.9242C625.263 21.575 625.588 21.35 626.062 21.1758C626.412 21.0375 626.938 20.875 627.913 20.825C628.976 20.7875 629.288 20.775 631.962 20.775L632 20.8ZM632 23.865C629.162 23.865 626.865 26.165 626.865 29C626.865 31.8375 629.165 34.135 632 34.135C634.837 34.135 637.135 31.835 637.135 29C637.135 26.1625 634.835 23.865 632 23.865ZM632 32.3333C630.158 32.3333 628.667 30.8417 628.667 29C628.667 27.1583 630.158 25.6667 632 25.6667C633.842 25.6667 635.333 27.1583 635.333 29C635.333 30.8417 633.842 32.3333 632 32.3333ZM638.538 23.6625C638.538 24.325 638 24.8625 637.338 24.8625C636.676 24.8625 636.138 24.3242 636.138 23.6625C636.138 23.0008 636.677 22.4633 637.338 22.4633C637.999 22.4625 638.538 23.0008 638.538 23.6625Z" fill="white"/>
</g>
<defs>
<clipPath id="clip0_1_248">
<rect width="20" height="20" fill="white" transform="translate(566 19)"/>
</clipPath>
<clipPath id="clip1_1_248">
<rect width="20" height="20" fill="white" transform="translate(678 19)"/>
</clipPath>
<clipPath id="clip2_1_248">
<rect width="20" height="20" fill="white" transform="translate(622 19)"/>
</clipPath>
</defs>
</svg>
